<?xml version="1.0" encoding="UTF-8"?>
<svg version="1.1" xmlns="http://www.w3.org/2000/svg" width="2000" height="2000">
<path d="M0 0 C660 0 1320 0 2000 0 C2000 660 2000 1320 2000 2000 C1340 2000 680 2000 0 2000 C0 1340 0 680 0 0 Z " fill="#FE3030" transform="translate(0,0)"/>
<path d="M0 0 C57.42 0 114.84 0 174 0 C186.85991678 50.3680074 186.85991678 50.3680074 190.57421875 66.890625 C192.40224382 74.8814409 194.50628219 82.8020564 196.58093262 90.73147583 C199.64004505 102.43515263 202.42063897 114.18206219 205 126 C207.64 126.33 210.28 126.66 213 127 C209.66512116 106.11602973 206.28984135 85.24438218 202.5 64.4375 C199.91329691 50.22573837 197.44302118 35.99780457 195.0625 21.75 C194.9068457 20.82347626 194.75119141 19.89695251 194.59082031 18.94235229 C194.15280748 16.33181566 193.71830748 13.72072218 193.28515625 11.109375 C193.15428116 10.33008133 193.02340607 9.55078766 192.88856506 8.74787903 C192.40261066 5.79363097 192 2.99982847 192 0 C245.79 0 299.58 0 355 0 C355 116.82 355 233.64 355 354 C288.34 354 221.68 354 153 354 C147.81522145 334.41305883 142.68511232 315.02106594 138.44140625 295.2421875 C136.59866714 286.71380022 134.72068949 278.19336827 132.83367157 269.67469406 C132.33691122 267.43207363 131.84043582 265.1893903 131.34405518 262.94668579 C131.17820419 262.19735212 131.01235321 261.44801846 130.84147644 260.67597771 C130.59147636 259.54642001 130.59147636 259.54642001 130.33642578 258.39404297 C129.99790753 256.86456231 129.65938621 255.33508233 129.32086182 253.80560303 C129.15378975 253.05074364 128.98671768 252.29588425 128.81458282 251.51815033 C128.48270353 250.01889143 128.15074988 248.51964899 127.81871796 247.02042389 C123.76222127 228.70396985 119.76203349 210.37981426 116 192 C113.36 191.67 110.72 191.34 108 191 C108.29003906 192.59714844 108.29003906 192.59714844 108.5859375 194.2265625 C109.99557521 202.05727723 111.30013476 209.8812611 112.38793945 217.76416016 C113.10600576 222.82126946 113.91688253 227.86313087 114.7265625 232.90625 C114.89966446 233.98624268 115.07276642 235.06623535 115.25111389 236.17895508 C116.68579148 245.10209479 118.14963349 254.02036751 119.62109375 262.9375 C119.79202325 263.97382317 119.79202325 263.97382317 119.96640587 265.03108215 C121.02357916 271.44042503 122.08107291 277.84971416 123.14282227 284.25830078 C125.66654699 299.49655764 128.15791443 314.73988033 130.51060677 330.00561523 C130.73255721 331.44240808 130.95620147 332.87894045 131.18166924 334.31518555 C131.49365835 336.30696058 131.79788296 338.29994708 132.10180664 340.29296875 C132.36290977 341.98715942 132.36290977 341.98715942 132.62928772 343.71557617 C133 347 133 347 133 354 C79.87 354 26.74 354 -28 354 C-28.20625 335.47875 -28.4125 316.9575 -28.625 297.875 C-28.71604004 292.05085449 -28.80708008 286.22670898 -28.90087891 280.22607422 C-28.94604492 273.05297852 -28.94604492 273.05297852 -28.95443726 269.68313599 C-28.96968261 267.35522282 -29.00462407 265.02738318 -29.05575562 262.69998169 C-29.37823325 247.23338314 -28.75846533 237.46285877 -18 226 C-16.82670277 224.28613892 -15.68455542 222.54965087 -14.6015625 220.77734375 C-13.86232544 219.58588745 -13.86232544 219.58588745 -13.1081543 218.37036133 C-12.61871338 217.56751709 -12.12927246 216.76467285 -11.625 215.9375 C-11.08464111 215.05537842 -10.54428223 214.17325684 -9.98754883 213.2644043 C-8.31372448 210.51623639 -6.65358683 207.76038762 -5 205 C-4.4652002 204.10764648 -3.93040039 203.21529297 -3.37939453 202.29589844 C3.6218924 190.53202092 9.83725925 178.68184138 15 166 C15.46921875 164.89398437 15.9384375 163.78796875 16.421875 162.6484375 C19.37303394 155.16123796 21.08506438 147.55920679 22.6875 139.6875 C22.89012451 138.69226318 23.09274902 137.69702637 23.30151367 136.67163086 C26.25154445 121.37257679 27.35175007 106.41075455 27.31567383 90.85253906 C27.31250319 88.00286906 27.33612175 85.15423116 27.36132812 82.3046875 C27.45511539 55.23425953 20.4511721 29.79273929 4.76171875 7.515625 C3.06049308 5.08638036 1.52584195 2.54306992 0 0 Z " fill="#000000" transform="translate(984,762)"/>
<path d="M0 0 C66.66 0 133.32 0 202 0 C212.53103448 42.12413793 212.53103448 42.12413793 216.5078125 59.66015625 C218.19956858 66.97601503 220.10107241 74.23596158 222 81.5 C224.62103321 91.53476831 227.15109975 101.58494842 229.5 111.6875 C229.75523437 112.77417969 230.01046875 113.86085938 230.2734375 114.98046875 C230.50289062 115.98078125 230.73234375 116.98109375 230.96875 118.01171875 C231.16919922 118.88272217 231.36964844 119.75372559 231.57617188 120.65112305 C232 123 232 123 232 127 C234.97 127 237.94 127 241 127 C234.77433562 89.97408714 234.77433562 89.97408714 228.25 53 C227.96661275 51.43099344 227.68324662 49.86198307 227.39990234 48.29296875 C226.99121823 46.03067447 226.58248494 43.76838913 226.17358398 41.50613403 C224.78505491 33.81974113 223.41223622 26.13080168 222.0625 18.4375 C221.74490723 16.66149414 221.74490723 16.66149414 221.42089844 14.84960938 C221.23172852 13.76357422 221.04255859 12.67753906 220.84765625 11.55859375 C220.68273682 10.62329834 220.51781738 9.68800293 220.34790039 8.72436523 C220 6 220 6 220 0 C260.26 0 300.52 0 342 0 C336 12 336 12 332.9375 17.8125 C322.67203417 38.4240505 319.55523161 61.70963727 319.625 84.5 C319.62681274 85.60767731 319.62681274 85.60767731 319.62866211 86.73773193 C319.78737103 122.72304341 331.10195963 158.69463494 354.79296875 186.2578125 C357 189 357 189 357 191 C357.88558594 191.38671875 357.88558594 191.38671875 358.7890625 191.78125 C361.18450783 193.1017075 362.54430707 194.47878247 364.375 196.5 C366.974461 199.35659258 368.88474463 200.95035811 372.46609497 202.4928894 C376.97840052 204.47208841 380.41033727 206.71381675 383 211 C385.53181354 220.60435315 384.67408807 231.13422405 384.41792297 240.98985291 C384.33771309 244.5753675 384.3344165 248.15942365 384.32446289 251.74584961 C384.25122926 262.20638299 384.05576888 272.66577228 383.875 283.125 C383.58625 306.51375 383.2975 329.9025 383 354 C316.34 354 249.68 354 181 354 C177.26861727 340.94016044 173.67490332 328.03238033 170.6875 314.8125 C170.30484579 313.13863568 169.92202864 311.4648086 169.5390625 309.79101562 C166.55196758 296.67812804 163.73230786 283.53039831 160.94335938 270.37417603 C157.65935963 254.88806473 154.16458903 239.45743685 150.56338501 224.04223633 C149.70454162 220.36250058 148.85061136 216.68164694 148 213 C147.81197815 212.18740723 147.6239563 211.37481445 147.43023682 210.53759766 C146.86122939 208.06784799 146.29882113 205.59668374 145.73828125 203.125 C145.56362839 202.36936768 145.38897552 201.61373535 145.20903015 200.83520508 C144.44507288 197.43822459 144 194.50319775 144 191 C141.03 191 138.06 191 135 191 C135.14099121 191.68400879 135.28198242 192.36801758 135.42724609 193.07275391 C136.08080339 196.25596869 136.72791386 199.44046371 137.375 202.625 C137.59671875 203.70007813 137.8184375 204.77515625 138.046875 205.8828125 C139.16714892 211.41828363 140.16778008 216.93969453 140.93554688 222.53564453 C141.9570059 229.79791142 143.11960488 237.03110859 144.3203125 244.265625 C144.54264112 245.61240109 144.76480968 246.9592036 144.98683167 248.30603027 C145.45605273 251.1513602 145.92602876 253.99656389 146.39657593 256.8416748 C147.63305043 264.32064618 148.86091231 271.80103624 150.08984375 279.28125 C150.21305559 280.03105888 150.33626743 280.78086777 150.46321297 281.55339813 C151.30927656 286.70218865 152.1548386 291.85106132 153 297 C153.11067055 297.67409912 153.22134109 298.34819824 153.3353653 299.04272461 C154.62018919 306.87005871 155.89880133 314.69835284 157.16522217 322.52868652 C157.51108505 324.66190511 157.85891807 326.79480529 158.20880127 328.92736816 C158.68998843 331.86221985 159.16426195 334.79810712 159.63671875 337.734375 C159.77678848 338.57923462 159.91685822 339.42409424 160.06117249 340.29455566 C160.1862468 341.0813269 160.31132111 341.86809814 160.44018555 342.67871094 C160.54912643 343.34932556 160.65806732 344.01994019 160.77030945 344.71087646 C161.0795417 347.7927221 161 350.90267905 161 354 C107.87 354 54.74 354 0 354 C0 237.18 0 120.36 0 0 Z " fill="#000000" transform="translate(355,762)"/>
<path d="M0 0 C96.36 0 192.72 0 292 0 C292 40.59 292 81.18 292 123 C259.99 123 227.98 123 195 123 C195 126.96 195 130.92 195 135 C220.41 135 245.82 135 272 135 C272 163.71 272 192.42 272 222 C246.59 222 221.18 222 195 222 C195 225.96 195 229.92 195 234 C228 234 261 234 295 234 C295 273.6 295 313.2 295 354 C197.65 354 100.3 354 0 354 C0 237.18 0 120.36 0 0 Z " fill="#000000" transform="translate(1352,762)"/>
<path d="M0 0 C2.36805828 2.14907655 4.64107831 4.30137314 6.81640625 6.6484375 C7.3475 7.174375 7.87859375 7.7003125 8.42578125 8.2421875 C19.67093608 19.98491555 24.40133018 35.40245253 24.25390625 51.3359375 C24.24254639 53.05514404 24.24254639 53.05514404 24.23095703 54.80908203 C24.05947399 63.65986006 23.07734174 71.34787443 19.81640625 79.6484375 C19.41550781 80.67453125 19.01460937 81.700625 18.6015625 82.7578125 C11.66244488 98.28534525 -0.80713787 109.78049069 -16.28515625 116.54296875 C-17.71988281 117.09017578 -17.71988281 117.09017578 -19.18359375 117.6484375 C-19.78937256 117.90810303 -20.39515137 118.16776855 -21.01928711 118.43530273 C-28.08313788 121.19450427 -34.99023065 121.12838711 -42.49609375 121.0859375 C-43.73810547 121.10591797 -44.98011719 121.12589844 -46.25976562 121.14648438 C-64.1160654 121.13712082 -78.95714754 113.59402816 -91.6015625 101.296875 C-105.44130551 86.69212107 -110.93904874 68.72444644 -110.421875 48.9140625 C-109.6421952 31.75342527 -102.604209 16.45568903 -90.18359375 4.6484375 C-89.52488281 4.00519531 -88.86617187 3.36195313 -88.1875 2.69921875 C-65.45884044 -18.38309927 -23.96021851 -20.20953974 0 0 Z " fill="#000000" transform="translate(884.18359375,792.3515625)"/>
<path d="M0 0 C8.91 3.96 8.91 3.96 18 8 C22.34787002 9.42430225 26.61249726 10.76218498 31 12 C32.29164063 12.48339844 32.29164063 12.48339844 33.609375 12.9765625 C43.46089543 15.95017811 53.33386301 16.33923455 63.5625 16.3125 C64.79935547 16.32861328 66.03621094 16.34472656 67.31054688 16.36132812 C75.05143961 16.36542167 81.65245559 15.38440627 89 13 C90.33047327 12.65542816 91.66291911 12.31796788 93 12 C91.43767979 15.67956291 89.16415918 18.16515793 86.4375 21.0625 C82.96608181 24.79595956 79.6408372 28.59216657 76.4375 32.5625 C73.55151207 36.13828469 70.59555196 39.60401318 67.5 43 C64.38541332 46.41739372 61.4081338 49.9052235 58.5 53.5 C54.88967558 57.96276213 51.11572071 62.22719533 47.25 66.46875 C44.92137947 69.0884481 42.70437053 71.7751531 40.5 74.5 C36.88850866 78.96420457 33.11339306 83.23002114 29.24609375 87.47265625 C26.93812402 90.06962393 24.74444137 92.73404013 22.5625 95.4375 C18.67545264 100.24712753 14.56247282 104.79536878 10.37109375 109.33984375 C7.49066619 112.57142722 4.86093111 115.94684314 2.27734375 119.41796875 C1.85582031 119.94003906 1.43429687 120.46210937 1 121 C0.67 121 0.34 121 0 121 C0 81.07 0 41.14 0 0 Z " fill="#020000" transform="translate(751,982)"/>
<path d="M0 0 C0.33 0 0.66 0 1 0 C1 31.02 1 62.04 1 94 C-25.07 94 -51.14 94 -78 94 C-76.46887534 90.93775068 -75.44819042 89.16149321 -73.27734375 86.71484375 C-72.74359131 86.10761475 -72.20983887 85.50038574 -71.65991211 84.87475586 C-70.80731812 83.91581421 -70.80731812 83.91581421 -69.9375 82.9375 C-68.74880878 81.58437887 -67.56131318 80.2302065 -66.375 78.875 C-65.79492188 78.21242188 -65.21484375 77.54984375 -64.6171875 76.8671875 C-62.50686101 74.43062696 -60.46557686 71.94277142 -58.4375 69.4375 C-55.02863012 65.22801481 -51.53600932 61.10239029 -48 57 C-44.44542508 52.875357 -40.93207702 48.72792096 -37.5 44.5 C-34.06791987 40.2720752 -30.55448829 36.1247211 -27 32 C-22.69155531 26.99950083 -18.4703021 21.94027102 -14.30859375 16.81640625 C-11.57027293 13.47574752 -8.79081113 10.17183485 -6 6.875 C-5.51845459 6.30579834 -5.03690918 5.73659668 -4.54077148 5.15014648 C-1.13576581 1.13576581 -1.13576581 1.13576581 0 0 Z " fill="#030000" transform="translate(942,1022)"/>
</svg>
